:SAMPLES-PER-SECOND 30
:FULLY-SPECIFIED
:DEGREES
363
root  -10.5683 35.6919 -5.6753 50.8859 -71.4225 -46.7715
RightUpLeg  12.3241 2.83845 16.2052
RightLeg  24.1354 1.09139 0.2891
RightFoot  -21.2787 0.598815 8.95319
RightToes  -1.16417e-010 0 -3.6325e-017
Spine  7.31944 1.21063 -8.65757
Spine1  5.21203 -3.00254 17.9692
HEad  -19.0169 1.48247 9.14059
LeftShoulder1  4.34915 -14.7339 -17.1808
LeftArm  -26.9029 10.0649 -62.9206
LeftForeArm  0.880689 7.0551 -7.38135
LeftHand  -0.717092 0.0878166 15.762
RightShoulder  -0.105976 -4.68476 0.553343
RightArm  -113.151 48.3364 -19.1753
RightForeArm  -9.60438 62.1057 23.0729
RightHand  -0.635807 10.0629 -5.16441
LeftUpLeg  -36.4046 -18.7634 3.14061
LeftLeg  59.9927 13.6137 24.3262
LeftFoot  -15.8019 0.0635805 -0.72754
LeftToes  6.91183e-011 3.39355e-011 2.1261e-011
364
root  -10.6701 34.8243 -5.8222 55.305 -72.2942 -52.5139
RightUpLeg  13.3546 4.35161 17.3087
RightLeg  27.321 0.372976 -0.0440175
RightFoot  -27.6731 0.810569 6.88725
RightToes  -1.16417e-010 0 -3.6325e-017
Spine  7.09617 1.00486 -8.80834
Spine1  8.17986 -3.81573 18.9207
HEad  -23.341 4.74197 7.56076
LeftShoulder1  4.44177 -13.6689 -19.3558
LeftArm  -26.069 13.3388 -63.8723
LeftForeArm  -4.54725 7.13329 -8.28009
LeftHand  -0.60432 0.865112 15.4864
RightShoulder  -0.113718 -4.8879 -0.350166
RightArm  -123.986 48.4253 -25.9908
RightForeArm  6.93944 72.2921 40.7545
RightHand  -0.531506 10.2541 -4.33763
LeftUpLeg  -36.458 -18.3978 2.98904
LeftLeg  64.2719 13.8154 28.9073
LeftFoot  -20.7184 0.294913 2.32014
LeftToes  6.91183e-011 3.39355e-011 2.1261e-011
365
root  -10.6245 34.9867 -5.63471 62.9799 -74.395 -60.6934
RightUpLeg  13.0214 3.66487 15.3881
RightLeg  29.2509 0.0312422 -0.201211
RightFoot  -26.6532 0.660736 6.33206
RightToes  -1.16417e-010 0 -3.6325e-017
Spine  6.9308 0.916843 -6.52048
Spine1  10.5787 -3.40547 15.8791
HEad  -26.2867 6.85081 6.44417
LeftShoulder1  4.36303 -12.8666 -20.1985
LeftArm  -23.3121 12.4664 -63.5044
LeftForeArm  -7.74335 7.31534 -9.71211
LeftHand  -0.519432 1.16919 14.2781
RightShoulder  -0.0482203 -4.08158 0.181192
RightArm  -126.12 49.2608 -26.1427
RightForeArm  48.1274 78.4009 83.23
RightHand  -0.443752 9.85625 -3.77226
LeftUpLeg  -35.9853 -15.4082 2.0176
LeftLeg  63.6848 13.7025 28.1641
LeftFoot  -17.871 0.27168 2.76265
LeftToes  6.91183e-011 3.39355e-011 2.1261e-011
366
root  -10.3713 35.9909 -4.99842 77.0831 -76.4266 -75.5271
RightUpLeg  9.70094 2.52459 11.2211
RightLeg  33.5644 4.05174 2.72782
RightFoot  -16.5795 0.224154 7.37514
RightToes  -1.16417e-010 0 -3.6325e-017
Spine  9.27857 1.53254 -1.8942
Spine1  9.49161 -1.43601 11.7988
HEad  -26.4995 7.40927 3.8304
LeftShoulder1  4.35202 -13.3236 -19.3613
LeftArm  -22.4999 9.26978 -63.7724
LeftForeArm  -7.97083 7.33317 -9.84988
LeftHand  -0.526873 0.502916 12.5696
RightShoulder  0.143872 -2.08784 1.81692
RightArm  -119.595 52.4917 -22.383
RightForeArm  76.9917 77.6432 112.226
RightHand  -0.404668 9.33303 -3.57908
LeftUpLeg  -32.9499 -12.5384 0.879814
LeftLeg  58.8491 15.8973 26.4865
LeftFoot  -12.7463 0.0959544 1.65015
LeftToes  6.91183e-011 3.39355e-011 2.1261e-011
367
root  -9.87418 37.3875 -4.01652 95.5851 -77.9064 -95.9656
RightUpLeg  3.44385 2.93918 6.6185
RightLeg  41.5106 5.04839 4.34585
RightFoot  -0.099574 -0.651158 6.82869
RightToes  -1.16417e-010 0 -3.6325e-017
Spine  14.6064 2.1768 3.05834
Spine1  6.86785 0.644875 8.30371
HEad  -25.9055 7.8384 -1.5235
LeftShoulder1  4.43317 -14.1386 -18.5506
LeftArm  -22.4925 3.80115 -63.0579
LeftForeArm  -10.2965 7.20501 -9.13641
LeftHand  -0.567221 -0.320983 11.6189
RightShoulder  0.443091 0.462716 3.16056
RightArm  -107.469 58.5106 -15.0275
RightForeArm  62.1064 78.3078 95.9854
RightHand  -0.412438 9.18735 -3.66909
LeftUpLeg  -27.4186 -10.8558 -1.04528
LeftLeg  51.1373 20.4412 25.2774
LeftFoot  -6.87952 -0.0239879 1.30189
LeftToes  6.91183e-011 3.39355e-011 2.1261e-011
368
root  -9.28042 38.8287 -2.99366 116.932 -79.634 -119.494
RightUpLeg  -4.43336 4.90325 1.73237
RightLeg  49.0471 -1.04522 -1.7567
RightFoot  13.9004 -0.903245 4.4772
RightToes  -1.16417e-010 0 -3.6325e-017
Spine  20.0204 1.97838 6.12675
Spine1  5.84987 1.81373 4.38434
HEad  -26.1597 8.73783 -8.07665
LeftShoulder1  4.35204 -13.6773 -18.7841
LeftArm  -20.799 -3.90538 -59.3638
LeftForeArm  -16.2248 6.99851 -8.88493
LeftHand  -0.651292 -0.744451 12.4248
RightShoulder  0.707308 2.74058 3.32162
RightArm  -90.906 64.8436 -0.0952557
RightForeArm  20.1034 75.1892 51.0329
RightHand  -0.359082 9.39147 -3.21105
LeftUpLeg  -21.7414 -8.16486 -4.31273
LeftLeg  40.5159 22.2305 19.5991
LeftFoot  2.52408 -0.0736201 0.714804
LeftToes  6.91183e-011 3.39355e-011 2.1261e-011
369
root  -8.93399 40.1713 -2.13802 142.654 -81.2574 -146.217
RightUpLeg  -12.8399 7.06133 -3.00759
RightLeg  54.1076 -8.39006 -12.497
RightFoot  18.4086 -0.16647 1.02265
RightToes  -1.16417e-010 0 -3.6325e-017
Spine  22.7242 0.93076 8.10917
Spine1  5.97356 2.28234 -0.27795
HEad  -26.505 9.05033 -13.3519
LeftShoulder1  3.98815 -11.7687 -19.6389
LeftArm  -19.1387 -12.2657 -53.3918
LeftForeArm  -20.0274 3.58424 -9.25557
LeftHand  -0.822355 -1.23256 14.5331
RightShoulder  0.855709 4.31885 2.84768
RightArm  -72.2141 67.4451 20.7608
RightForeArm  -2.3495 63.2167 23.6935
RightHand  -0.35033 9.6246 -3.0944
LeftUpLeg  -17.3551 -3.5999 -7.50059
LeftLeg  28.6921 15.0429 9.23434
LeftFoot  14.8343 0.63419 -2.99674
LeftToes  6.91183e-011 3.39355e-011 2.1261e-011
370
root  -8.91151 41.2959 -1.43616 171.864 -81.9142 -175.318
RightUpLeg  -20.7489 9.99613 -6.83997
RightLeg  55.6989 -10.7734 -16.7949
RightFoot  16.2806 0.494629 -1.52931
RightToes  -1.16417e-010 0 -3.6325e-017
Spine  23.029 -0.101536 10.0081
Spine1  5.87543 2.77638 -4.59412
HEad  -25.5601 7.90705 -16.532
LeftShoulder1  3.54492 -9.67232 -20.4868
LeftArm  -17.3818 -19.7524 -47.2093
LeftForeArm  -21.3872 -9.44349 -9.14411
LeftHand  -0.987289 -1.83162 16.0223
RightShoulder  0.938374 5.06684 2.85775
RightArm  -59.906 65.8649 35.9409
RightForeArm  -8.46627 45.9939 12.1302
RightHand  -0.574504 9.15138 -4.98058
LeftUpLeg  -13.9513 -1.06816 -9.82133
LeftLeg  20.8234 3.53097 1.65812
LeftFoot  22.9692 1.89433 -6.71772
LeftToes  6.91183e-011 3.39355e-011 2.1261e-011
371
root  -9.02443 41.9167 -0.84866 -162.281 -81.0107 158.508
RightUpLeg  -26.7954 14.9513 -9.67569
RightLeg  54.4306 -8.29891 -12.6539
RightFoot  14.6868 0.224991 -0.545229
RightToes  -1.16417e-010 0 -3.6325e-017
Spine  22.834 -0.297557 11.1464
Spine1  5.66146 3.70359 -8.11275
HEad  -23.4215 5.71651 -18.5904
LeftShoulder1  3.21674 -8.21386 -21.0759
LeftArm  -13.0698 -26.494 -41.6495
LeftForeArm  -27.9542 -25.824 -6.7241
LeftHand  -1.02083 -1.9486 16.2836
RightShoulder  1.03729 5.26041 3.87131
RightArm  -53.4557 62.9243 41.5753
RightForeArm  -12.6922 26.8354 5.78695
RightHand  -0.810764 7.46951 -7.67131
LeftUpLeg  -11.4991 -2.98738 -11.6074
LeftLeg  20.3336 0.63431 0.620661
LeftFoot  21.5445 1.63844 -5.91982
LeftToes  6.91183e-011 3.39355e-011 2.1261e-011
372
root  -9.27864 41.9431 -0.39589 -146.153 -79.623 141.087
RightUpLeg  -29.6151 20.0063 -10.7996
RightLeg  51.5642 -5.00956 -7.12235
RightFoot  16.5403 -0.034407 0.618609
RightToes  -1.16417e-010 0 -3.6325e-017
Spine  22.3027 -0.0501887 11.2924
Spine1  5.95453 4.66435 -10.7997
HEad  -20.566 3.4785 -20.6891
LeftShoulder1  2.92965 -7.13648 -21.1646
LeftArm  -25.333 -33.2016 -35.1888
LeftForeArm  -22.052 -39.8396 -10.5607
LeftHand  -0.970982 -1.37173 16.7894
RightShoulder  1.13829 5.24592 5.20315
RightArm  -43.5773 60.464 42.7779
RightForeArm  -21.7414 8.04005 0.608013
RightHand  -0.806485 5.27726 -9.04165
LeftUpLeg  -9.33558 -3.83706 -12.8032
LeftLeg  23.7756 6.04769 3.2605
LeftFoot  17.1935 0.404884 -2.04385
LeftToes  6.91183e-011 3.39355e-011 2.1261e-011
373
root  -9.74357 41.6051 -0.0433402 -129.485 -79.0659 123.607
RightUpLeg  -29.2344 21.606 -10.1242
RightLeg  46.3882 -4.10378 -4.87685
RightFoot  21.1942 0.243103 -0.310886
RightToes  -1.16417e-010 0 -3.6325e-017
Spine  20.0982 0.0180946 11.0415
Spine1  6.32441 4.79758 -12.0071
HEad  -16.1151 1.75755 -22.8449
LeftShoulder1  2.50664 -5.94902 -20.0672
LeftArm  -36.1779 -39.7425 -28.8448
LeftForeArm  -19.288 -52.226 -15.9699
LeftHand  -0.902617 -0.385002 18.2061
RightShoulder  1.16591 5.13627 5.75085
RightArm  -34.6903 56.4562 44.3082
RightForeArm  -25.4371 -5.64665 0.67584
RightHand  -0.636578 3.16847 -8.84333
LeftUpLeg  -6.96971 -1.58412 -12.9338
LeftLeg  24.7631 8.65486 4.68758
LeftFoot  15.6164 0.309874 -1.69622
LeftToes  6.91183e-011 3.39355e-011 2.1261e-011
374
root  -10.3068 41.0039 0.259171 -105.523 -77.8863 100.281
RightUpLeg  -27.5992 19.9535 -9.73128
RightLeg  40.3448 -6.24752 -5.86624
RightFoot  24.9355 0.564335 -1.17834
RightToes  -1.16417e-010 0 -3.6325e-017
Spine  16.7215 -0.0213212 10.2988
Spine1  5.18662 4.20921 -12.3508
HEad  -9.26593 0.120927 -23.913
LeftShoulder1  1.88054 -4.35319 -17.2348
LeftArm  -47.2383 -45.5145 -22.8319
LeftForeArm  -14.8108 -61.961 -23.2451
LeftHand  -0.84424 0.445305 19.7911
RightShoulder  1.18308 5.17231 5.91347
RightArm  -28.9683 47.3934 46.6081
RightForeArm  -21.4683 -6.06129 3.59622
RightHand  -0.54038 1.86066 -8.83182
LeftUpLeg  -5.60296 1.49939 -13.1015
LeftLeg  23.4042 2.03948 1.23573
LeftFoot  13.7347 1.164 -5.70681
LeftToes  6.91183e-011 3.39355e-011 2.1261e-011
375
root  -10.7716 40.0629 0.561333 -89.6358 -74.6088 85.1929
RightUpLeg  -26.6376 19.3388 -10.559
RightLeg  38.7122 -11.0401 -9.68147
RightFoot  22.0317 0.774589 -2.12606
RightToes  -1.16417e-010 0 -3.6325e-017
Spine  15.0835 0.289075 9.66174
Spine1  2.26948 4.29942 -14.2509
HEad  -2.17784 -2.48694 -23.0125
LeftShoulder1  1.12982 -2.01094 -13.4553
LeftArm  -59.1285 -51.5319 -15.841
LeftForeArm  -7.11335 -68.4034 -31.76
LeftHand  -0.913929 0.354238 21.0247
RightShoulder  1.38274 5.65113 7.54095
RightArm  -27.0515 32.9947 47.2447
RightForeArm  -13.5112 -6.62725 5.19635
RightHand  -0.661728 1.80789 -10.788
LeftUpLeg  -5.61665 4.4259 -14.8029
LeftLeg  24.8635 -8.85041 -4.23678
LeftFoot  8.05166 1.40563 -8.40098
LeftToes  6.91183e-011 3.39355e-011 2.1261e-011
